<svg id="Layer_1" data-name="Layer 1" xmlns="http://www.w3.org/2000/svg" viewBox="0 0 1080 1080"><path d="M758.49,579.34a14.17,14.17,0,1,1-14.17,14.17A14.16,14.16,0,0,1,758.49,579.34Z" fill="#6ebbd6" fill-rule="evenodd"/><path d="M574.64,564.12a14.17,14.17,0,1,1-14.17,14.16A14.17,14.17,0,0,1,574.64,564.12Z" fill="#712979" fill-rule="evenodd"/><path d="M540.68,564.12a14.17,14.17,0,1,1-14.17,14.16A14.16,14.16,0,0,1,540.68,564.12Z" fill="#712979" fill-rule="evenodd"/><path d="M709.3,400.18a14.17,14.17,0,1,1-14.16,14.17A14.16,14.16,0,0,1,709.3,400.18Z" fill="#712979" fill-rule="evenodd"/><path d="M495.21,632.51q7,0,10.09,3.34a9.78,9.78,0,0,1,2.18,4,20.81,20.81,0,0,1,.7,5.66q0,13.08-13.29,13.08H491V632.51ZM486,622.6a5.45,5.45,0,0,0-4.15,1.54,4.89,4.89,0,0,0-1.07,1.9,8.42,8.42,0,0,0-.34,2.53v34.06a6.63,6.63,0,0,0,1.34,4.25,4.74,4.74,0,0,0,1.84,1.23,6.71,6.71,0,0,0,2.38.39h8.75q9.73,0,16.34-5.31a19.34,19.34,0,0,0,5.7-7.54,25.9,25.9,0,0,0,1.86-10.14A29.94,29.94,0,0,0,517,635.07a17.62,17.62,0,0,0-5.06-7.34,19.66,19.66,0,0,0-7.14-3.89,32.2,32.2,0,0,0-9.38-1.24l-9.42-.11Z" fill="#444"/><path d="M549.24,667.41a.76.76,0,0,0,0,.79c.12.2.4.3.82.3h8.82a1.21,1.21,0,0,0,1.3-.84l3.31-8.69h16.2l3.27,8.62a1.28,1.28,0,0,0,1.34.91h9q1.34,0,.81-1.2L578.2,626.74c-1.19-3.18-3.39-4.78-6.57-4.78a6.62,6.62,0,0,0-4,1.2,7.09,7.09,0,0,0-2.44,3.62Zm20.28-27.24,2-6.4c.23,1,.52,2.08.86,3.15s.73,2.16,1.18,3.29l3.37,9.59H566.25l3.27-9.73Z" fill="#444"/><path d="M629.8,622.6q-5.58,0-5.58,6v38.95c0,.65.3,1,.91,1h8.54a.86.86,0,0,0,1-1V652.3h7.56L652.37,668a1.43,1.43,0,0,0,1.26.49h9.7c.78,0,1-.42.6-1.27l-10.75-16.52q8.75-3.4,8.75-13.6a13.37,13.37,0,0,0-5-11q-4.4-3.55-11.43-3.55Zm15.5,20.24H634.62V632.51H645.3c4.06,0,6.08,1.6,6.08,4.81,0,3.68-2,5.52-6.08,5.52v0Z" fill="#444"/><path d="M701.79,622.6c-3.72,0-5.59,2-5.59,6v38.95c0,.65.31,1,.92,1h8.54a.86.86,0,0,0,1-1V652.3h7.56L724.36,668a1.43,1.43,0,0,0,1.26.49h9.7c.78,0,1-.42.6-1.27l-10.75-16.52q8.75-3.4,8.75-13.6a13.37,13.37,0,0,0-5-11q-4.39-3.55-11.43-3.55Zm15.5,20.24H706.61V632.51h10.68c4.06,0,6.08,1.6,6.08,4.81,0,3.68-2,5.52-6.08,5.52v0Z" fill="#444"/><path d="M859,639.33H847.6V632h10.93q5.06,0,5.06,3.37c0,2.62-1.53,3.94-4.6,3.94Zm.14-16.84H843a5.17,5.17,0,0,0-4,1.9,5.62,5.62,0,0,0-1.55,4.11v34.13a6.22,6.22,0,0,0,1.55,4.25,5.15,5.15,0,0,0,1.82,1.23,5.91,5.91,0,0,0,2.18.39h15.89q7.56,0,12.09-3.8t4.68-11.1a11.63,11.63,0,0,0-.46-3.32,12.54,12.54,0,0,0-1.27-2.87,10.13,10.13,0,0,0-4.6-3.76q4.81-2.6,4.81-9a10.73,10.73,0,0,0-4.18-9q-3.93-3.2-10.82-3.2Zm-11.53,26h11.14c2.27,0,3.89.37,4.85,1.12a4.16,4.16,0,0,1,1.14,1.69,6.93,6.93,0,0,1,.37,2.46,4.34,4.34,0,0,1-1.56,3.62,7.72,7.72,0,0,1-4.8,1.23H847.6V648.47Z" fill="#444"/><path d="M803.22,622.49H776.89c-3.72,0-5.59,2-5.59,6v34.13c0,3.91,1.87,5.87,5.59,5.87h26.86c.51,0,.77-.33.77-1V659c0-.63-.26-.94-.77-.94h-22v-8.79h14.37a1,1,0,0,0,1.16-1.16v-8.26c0-.73-.35-1.09-1-1.09H781.71V633h21.51c.68,0,1-.32,1-.95v-8.47c0-.75-.34-1.13-1-1.13v0Z" fill="#444"/><path d="M939.81,622.49h-8.3c-.61,0-.91.35-.91,1.06v17.36l.14,9.31-2.71-4.5-14.55-21.08a4.27,4.27,0,0,0-1.25-1.29,8.2,8.2,0,0,0-1.7-.86l-3.62-.32a5.48,5.48,0,0,0-3.44,1.92,6.19,6.19,0,0,0-1.13,3.88v39.55c0,.65.3,1,.91,1h8.33c.61,0,.92-.33.92-1V649.24l-.11-9.28,2.67,4.43L929.93,666c1.83,2.63,4.1,3.68,6.82,3.17s4-2.25,4-5.27V623.55c0-.71-.33-1.06-1-1.06v0Z" fill="#444"/><path d="M973.31,667.52a.87.87,0,0,0,1,1h8.5c.68,0,1-.33,1-1v-44c0-.71-.34-1.06-1-1.06h-8.4a1,1,0,0,0-1.09,1.06v44Z" fill="#444"/><path d="M464.53,478.15q-6.3,26.34,3.27,47.3t32.1,29.73H608.37q22.27-3.52,28.69-17.94t.26-32Q631.17,487.72,605,485.1H573.79q-7.6-1.32-7.6-8.65t7.07-9.17h76v87.9h38.52V530.69h-9.69v-67.6q0-21.36-22.41-21.36H570.38q-19.39,1.71-27.51,15.85T540,489.81q5.24,18.07,27.24,21.49H601q11.26,1.69,11.07,10t-5.3,9.37H510.9q-12-4.46-17.95-17.43a41.17,41.17,0,0,1-2.88-26.59,28.11,28.11,0,0,1,3.06-7.64c4.5-7.61,12.42-10.69,15.68-11.75h11.52V441.73L499,442c-5.25,1.58-17.13,6-25.9,17.55A47.66,47.66,0,0,0,464.53,478.15Z" fill="#444"/><path d="M693.58,530.82H682.71v24.5h55.15v-24.5H725V441.73H693.58Z" fill="#444"/><path d="M745.81,530.82h-16v24.36H759.3q9.57-.51,13.63-6.35a21.4,21.4,0,0,0,3.8-13.3V440.16H745.81Z" fill="#444"/><path d="M811.53,547.59q.53,13.23-5,17.49a25.51,25.51,0,0,1-13.36,5h-5.51v22.53h20.18q20-.25,27.44-9.5T842.44,557V441.73H811.53Z" fill="#444"/><path d="M873.43,466.49h62.88q14.41,1,15.2,14.15v48.74c0,.87-.35,1.31-1,1.31H863v24.49H984V475.93q-.78-17-9.83-25.68t-23.71-8.91h-77Z" fill="#444"/><path d="M409.84,614.57l-145.9,74.85L118,614.57V464.88L263.94,390l145.9,74.85Z" fill="#712979"/><path d="M86.07,529.39l161.14,83v93.3l-161.14-83Z" fill="#6ec9df" fill-rule="evenodd"/><path d="M247.2,445.78l-161.15,83v93.3l161.15-83Z" fill="#c5e9f2" fill-rule="evenodd"/><path d="M441.77,456.92,280.62,540v93.3l161.15-83Z" fill="#c288c0" fill-rule="evenodd"/><path d="M280.64,373.31l161.15,83v93.3l-161.15-83Z" fill="#903594" fill-rule="evenodd"/></svg>